#!OML:ASF F:\VICON\USERDATA\INSTALL\rory3\rory3.ASF
:FULLY-SPECIFIED
:DEGREES
45
root 0.5135099342963789 18.100113071368423 11.947291702130237 -3.6400020231585053 -2.0799768128776646 -6.903954392290872
lfemur -27.90066850357627 4.719812139530133 -11.979184234975056
ltibia 69.53108595002837
lfoot -6.926245543853367 -1.9141614543255097
ltoes -7.662478655385394
rfemur -3.754054099949313 6.605090398135231 34.791327290753706
rtibia 27.908817041305905
rfoot -18.802933014823672 -8.565795140061459
rtoes 11.183400959800844
lowerback 10.967114710673554 0.9924336573681785 5.0138002131634005
upperback 0.5123514354145482 2.0710728708911255 2.5360759950339222
thorax -5.511015847363632 0.9228991351196624 -0.6230815753206852
lowerneck -16.05268182751112 -3.001688423345594 -1.4049245544024171
upperneck 20.85664479030955 -3.9014195645606433 0.40540773963240184
head 9.228958449655638 -1.8924274953849682 -0.1350412762671157
lclavicle -1.0594799151964998e-15 -8.863288814790234e-16
lhumerus -33.370368052736524 1.374345608495382 83.2945400449091
lradius 25.045738473005358
lwrist 5.552854967871195
lhand -29.377071521662945 21.421454598927596
lfingers 7.125020000000057
lthumb -2.715436379068403 51.39773853639012
rclavicle -1.0594799151964998e-15 -8.863288814790234e-16
rhumerus -26.239530814575804 -15.20216919110791 -80.7552318979483
rradius 25.31101260402037
rwrist 1.9707947502233552
rhand -17.442738377329615 29.68068327704175
rfingers 7.125020000000057
rthumb 8.80856251215006 -8.58689300058464
46
root 0.5228793534017204 18.03935843300679 13.002465950292141 -2.8915308769552035 -2.763313764087906 -7.4671497423749
lfemur -29.857553510877985 3.597990543168982 -11.18850888133725
ltibia 59.45423920592647
lfoot -7.655281379611621 1.6561885260502596
ltoes -6.354346836297767
rfemur -0.983409487998804 6.932707575484816 35.65950846550873
rtibia 26.6922620153427
rfoot -20.704994757518442 -8.918591110666945
rtoes 10.4671829823436
lowerback 10.948735659413625 1.3431979725425256 5.962505751697773
upperback 0.46593858217814016 2.6474234482121526 2.473063162111883
thorax -5.466470853746255 1.1798881396764598 -1.2769844961664383
lowerneck -16.32937887178747 -3.000749658267232 -1.3493974887536573
upperneck 20.459822244796197 -3.9005209210708145 0.43155323902956577
head 9.144610771136712 -1.8882118635657918 -0.13722623574303705
lclavicle -8.502612447783889e-16 -7.243302599104644e-16
lhumerus -34.29404960305211 2.2926924426017568 83.28043528655692
lradius 25.439869774619112
lwrist 6.015530496066436
lhand -29.512461126957852 20.943235208230497
lfingers 7.125020000000057
lthumb -2.8462061567388863 50.91665543510437
rclavicle -8.502612447783889e-16 -7.243302599104644e-16
rhumerus -24.037376554247807 -12.193417625912813 -81.64969884185771
rradius 28.041457885474756
rwrist -0.04037972149398872
rhand -17.57873812514502 29.887898265147097
rfingers 7.125020000000057
rthumb 8.677255754472082 -7.862361440062947
47
root 0.5309160492374843 17.971740021934995 13.932040700284544 -1.9955192723896493 -3.3804139729252842 -8.039822196252791
lfemur -30.75924429262164 1.3504502803764866 -9.932664419230756
ltibia 46.51838820621575
lfoot -7.604455521732536 5.020752964670149
ltoes -5.280152243705573
rfemur 1.9754655838316335 7.205951962910664 36.429380076497104
rtibia 24.463683680784833
rfoot -22.406709859811308 -9.248696177226229
rtoes 8.994741997985553
lowerback 10.7516938686729 1.6554561684895548 6.77363028240411
upperback 0.4038337328437753 3.148733639679057 2.4569595881712334
thorax -5.353498676859479 1.4056331262876167 -1.806151957883066
lowerneck -16.65436576241339 -3.005400939734586 -1.2925013537006067
upperneck 20.03466351358404 -3.9094727095323485 0.4482902970978164
head 9.059811439456276 -1.887947906740137 -0.1437550656277754
lclavicle -7.524077275012116e-16 -6.485619960771395e-16
lhumerus -35.136804237163666 3.281376015656914 83.16004636906558
lradius 25.202208553720403
lwrist 6.028383016225721
lhand -29.64057430961443 20.588015057367137
lfingers 7.125020000000057
lthumb -2.9699424504994347 50.55946724193924
rclavicle -7.524077275012116e-16 -6.485619960771395e-16
rhumerus -21.92432889044222 -9.835000577003239 -82.19985675907763
rradius 30.184473259681504
rwrist -1.6379930121166328
rhand -17.68731543945157 30.14005946109528
rfingers 7.125020000000057
rthumb 8.572422887472896 -7.0373563432641495
48
root 0.5415234492265648 17.897394637687714 14.725235801787305 -1.0764887429624803 -3.906188924179458 -8.495359076937522
lfemur -30.638251326719715 -1.60133254277752 -8.436048463586088
ltibia 32.64918143632922
lfoot -7.3033472178587715 7.846967007215713
ltoes -4.862210554735086
rfemur 5.162304922497464 7.408942395841347 37.024608078486565
rtibia 21.96149013358151
rfoot -23.9206485160073 -9.40011637564151
rtoes 6.437617763451049
lowerback 10.408550658072185 1.9431364309313426 7.370731711298982
upperback 0.3374244600418291 3.5811958861794158 2.4564789389140276
thorax -5.175137700156935 1.6056546926258757 -2.1807216349534153
lowerneck -16.965952405979007 -3.0162924312831745 -1.2356484914130332
upperneck 19.69405491224596 -3.9325654574429603 0.4763887530927515
head 9.002394316737252 -1.8927729265972826 -0.14813967379351467
lclavicle -6.701995892853029e-16 -5.849079927503646e-16
lhumerus -35.82804525115862 4.39073393814626 82.95955218808814
lradius 24.579900171690028
lwrist 5.77182094895508
lhand -29.691173733573372 20.525337923921295
lfingers 7.125020000000058
lthumb -3.0188075898368116 50.49718200168074
rclavicle -6.701995892853029e-16 -5.849079927503646e-16
rhumerus -20.00647770580508 -8.26449829070253 -82.42730763432554
rradius 31.854078407797775
rwrist -2.651869663663277
rhand -17.761813473946592 30.453686232845072
rfingers 7.125020000000058
rthumb 8.500489329674451 -6.38359037130626
